<svg width="87" height="17" viewBox="0 0 87 17" fill="none" xmlns="http://www.w3.org/2000/svg">
<path d="M2.46641 8.62H9.68641V10.34H2.46641V8.62ZM2.66641 16H0.666406V2H10.5464V3.74H2.66641V16ZM17.4697 16.12C16.3364 16.12 15.3364 15.8867 14.4697 15.42C13.6164 14.9533 12.9497 14.3133 12.4697 13.5C12.003 12.6867 11.7697 11.7533 11.7697 10.7C11.7697 9.64667 11.9964 8.71333 12.4497 7.9C12.9164 7.08667 13.5497 6.45333 14.3497 6C15.163 5.53333 16.0764 5.3 17.0897 5.3C18.1164 5.3 19.023 5.52667 19.8097 5.98C20.5964 6.43333 21.2097 7.07333 21.6497 7.9C22.103 8.71333 22.3297 9.66667 22.3297 10.76C22.3297 10.84 22.323 10.9333 22.3097 11.04C22.3097 11.1467 22.303 11.2467 22.2897 11.34H13.2697V9.96H21.2897L20.5097 10.44C20.523 9.76 20.383 9.15333 20.0897 8.62C19.7964 8.08667 19.3897 7.67333 18.8697 7.38C18.363 7.07333 17.7697 6.92 17.0897 6.92C16.423 6.92 15.8297 7.07333 15.3097 7.38C14.7897 7.67333 14.383 8.09333 14.0897 8.64C13.7964 9.17333 13.6497 9.78667 13.6497 10.48V10.8C13.6497 11.5067 13.8097 12.14 14.1297 12.7C14.463 13.2467 14.923 13.6733 15.5097 13.98C16.0964 14.2867 16.7697 14.44 17.5297 14.44C18.1564 14.44 18.723 14.3333 19.2297 14.12C19.7497 13.9067 20.203 13.5867 20.5897 13.16L21.6497 14.4C21.1697 14.96 20.5697 15.3867 19.8497 15.68C19.143 15.9733 18.3497 16.12 17.4697 16.12ZM24.9958 16V5.4H26.8358V8.28L26.6558 7.56C26.9491 6.82667 27.4424 6.26667 28.1358 5.88C28.8291 5.49333 29.6824 5.3 30.6958 5.3V7.16C30.6158 7.14667 30.5358 7.14 30.4558 7.14C30.3891 7.14 30.3224 7.14 30.2558 7.14C29.2291 7.14 28.4158 7.44667 27.8158 8.06C27.2158 8.67333 26.9158 9.56 26.9158 10.72V16H24.9958ZM37.1319 16.12C36.0652 16.12 35.2385 15.8333 34.6519 15.26C34.0652 14.6867 33.7719 13.8667 33.7719 12.8V3.08H35.6919V12.72C35.6919 13.2933 35.8319 13.7333 36.1119 14.04C36.4052 14.3467 36.8185 14.5 37.3519 14.5C37.9519 14.5 38.4519 14.3333 38.8519 14L39.4519 15.38C39.1585 15.6333 38.8052 15.82 38.3919 15.94C37.9919 16.06 37.5719 16.12 37.1319 16.12ZM31.9719 6.98V5.4H38.7319V6.98H31.9719ZM41.7731 16V5.4H43.6931V16H41.7731ZM42.7331 3.36C42.3598 3.36 42.0465 3.24 41.7931 3C41.5531 2.76 41.4331 2.46667 41.4331 2.12C41.4331 1.76 41.5531 1.46 41.7931 1.22C42.0465 0.979999 42.3598 0.859999 42.7331 0.859999C43.1065 0.859999 43.4131 0.979999 43.6531 1.22C43.9065 1.44667 44.0331 1.73333 44.0331 2.08C44.0331 2.44 43.9131 2.74667 43.6731 3C43.4331 3.24 43.1198 3.36 42.7331 3.36ZM47.3591 16V1.16H49.2791V16H47.3591ZM52.945 16V5.4H54.865V16H52.945ZM53.905 3.36C53.5317 3.36 53.2183 3.24 52.965 3C52.725 2.76 52.605 2.46667 52.605 2.12C52.605 1.76 52.725 1.46 52.965 1.22C53.2183 0.979999 53.5317 0.859999 53.905 0.859999C54.2783 0.859999 54.585 0.979999 54.825 1.22C55.0783 1.44667 55.205 1.73333 55.205 2.08C55.205 2.44 55.085 2.74667 54.845 3C54.605 3.24 54.2917 3.36 53.905 3.36ZM57.5109 16V14.76L64.3109 6.32L64.6909 6.98H57.6309V5.4H66.2309V6.66L59.4309 15.08L58.9909 14.42H66.3909V16H57.5109ZM73.5244 16.12C72.391 16.12 71.391 15.8867 70.5244 15.42C69.671 14.9533 69.0044 14.3133 68.5244 13.5C68.0577 12.6867 67.8244 11.7533 67.8244 10.7C67.8244 9.64667 68.051 8.71333 68.5044 7.9C68.971 7.08667 69.6044 6.45333 70.4044 6C71.2177 5.53333 72.131 5.3 73.1444 5.3C74.171 5.3 75.0777 5.52667 75.8644 5.98C76.651 6.43333 77.2644 7.07333 77.7044 7.9C78.1577 8.71333 78.3844 9.66667 78.3844 10.76C78.3844 10.84 78.3777 10.9333 78.3644 11.04C78.3644 11.1467 78.3577 11.2467 78.3444 11.34H69.3244V9.96H77.3444L76.5644 10.44C76.5777 9.76 76.4377 9.15333 76.1444 8.62C75.851 8.08667 75.4444 7.67333 74.9244 7.38C74.4177 7.07333 73.8244 6.92 73.1444 6.92C72.4777 6.92 71.8844 7.07333 71.3644 7.38C70.8444 7.67333 70.4377 8.09333 70.1444 8.64C69.851 9.17333 69.7044 9.78667 69.7044 10.48V10.8C69.7044 11.5067 69.8644 12.14 70.1844 12.7C70.5177 13.2467 70.9777 13.6733 71.5644 13.98C72.151 14.2867 72.8244 14.44 73.5844 14.44C74.211 14.44 74.7777 14.3333 75.2844 14.12C75.8044 13.9067 76.2577 13.5867 76.6444 13.16L77.7044 14.4C77.2244 14.96 76.6244 15.3867 75.9044 15.68C75.1977 15.9733 74.4044 16.12 73.5244 16.12ZM81.0505 16V5.4H82.8905V8.28L82.7105 7.56C83.0038 6.82667 83.4971 6.26667 84.1905 5.88C84.8838 5.49333 85.7371 5.3 86.7505 5.3V7.16C86.6705 7.14667 86.5905 7.14 86.5105 7.14C86.4438 7.14 86.3771 7.14 86.3105 7.14C85.2838 7.14 84.4705 7.44667 83.8705 8.06C83.2705 8.67333 82.9705 9.56 82.9705 10.72V16H81.0505Z" fill="#282828"/>
</svg>
