<svg width="173" height="20" viewBox="0 0 173 20" fill="none" xmlns="http://www.w3.org/2000/svg">
<path d="M0.0648438 16V2H5.52484C6.75151 2 7.79818 2.19333 8.66484 2.58C9.53151 2.96667 10.1982 3.52667 10.6648 4.26C11.1315 4.99333 11.3648 5.86667 11.3648 6.88C11.3648 7.89333 11.1315 8.76667 10.6648 9.5C10.1982 10.22 9.53151 10.78 8.66484 11.18C7.79818 11.5667 6.75151 11.76 5.52484 11.76H1.16484L2.06484 10.82V16H0.0648438ZM2.06484 11.02L1.16484 10.02H5.46484C6.74484 10.02 7.71151 9.74667 8.36484 9.2C9.03151 8.65333 9.36484 7.88 9.36484 6.88C9.36484 5.88 9.03151 5.10667 8.36484 4.56C7.71151 4.01333 6.74484 3.74 5.46484 3.74H1.16484L2.06484 2.74V11.02ZM14.2184 16V1.16H16.1384V16H14.2184ZM26.3844 16V13.76L26.2844 13.34V9.52C26.2844 8.70667 26.0444 8.08 25.5644 7.64C25.0977 7.18667 24.391 6.96 23.4444 6.96C22.8177 6.96 22.2044 7.06667 21.6044 7.28C21.0044 7.48 20.4977 7.75333 20.0844 8.1L19.2844 6.66C19.831 6.22 20.4844 5.88667 21.2444 5.66C22.0177 5.42 22.8244 5.3 23.6644 5.3C25.1177 5.3 26.2377 5.65333 27.0244 6.36C27.811 7.06667 28.2044 8.14667 28.2044 9.6V16H26.3844ZM22.9044 16.12C22.1177 16.12 21.4244 15.9867 20.8244 15.72C20.2377 15.4533 19.7844 15.0867 19.4644 14.62C19.1444 14.14 18.9844 13.6 18.9844 13C18.9844 12.4267 19.1177 11.9067 19.3844 11.44C19.6644 10.9733 20.111 10.6 20.7244 10.32C21.351 10.04 22.191 9.9 23.2444 9.9H26.6044V11.28H23.3244C22.3644 11.28 21.7177 11.44 21.3844 11.76C21.051 12.08 20.8844 12.4667 20.8844 12.92C20.8844 13.44 21.091 13.86 21.5044 14.18C21.9177 14.4867 22.491 14.64 23.2244 14.64C23.9444 14.64 24.571 14.48 25.1044 14.16C25.651 13.84 26.0444 13.3733 26.2844 12.76L26.6644 14.08C26.411 14.7067 25.9644 15.2067 25.3244 15.58C24.6844 15.94 23.8777 16.12 22.9044 16.12ZM37.4175 5.3C38.2842 5.3 39.0442 5.46667 39.6975 5.8C40.3642 6.13333 40.8842 6.64 41.2575 7.32C41.6308 8 41.8175 8.86 41.8175 9.9V16H39.8975V10.12C39.8975 9.09333 39.6442 8.32 39.1375 7.8C38.6442 7.28 37.9442 7.02 37.0375 7.02C36.3575 7.02 35.7642 7.15333 35.2575 7.42C34.7508 7.68667 34.3575 8.08 34.0775 8.6C33.8108 9.12 33.6775 9.76667 33.6775 10.54V16H31.7575V5.4H33.5975V8.26L33.2975 7.5C33.6442 6.80667 34.1775 6.26667 34.8975 5.88C35.6175 5.49333 36.4575 5.3 37.4175 5.3ZM49.0108 16.12C47.9441 16.12 47.1174 15.8333 46.5308 15.26C45.9441 14.6867 45.6508 13.8667 45.6508 12.8V3.08H47.5708V12.72C47.5708 13.2933 47.7108 13.7333 47.9908 14.04C48.2841 14.3467 48.6974 14.5 49.2308 14.5C49.8308 14.5 50.3308 14.3333 50.7308 14L51.3308 15.38C51.0374 15.6333 50.6841 15.82 50.2708 15.94C49.8708 16.06 49.4508 16.12 49.0108 16.12ZM43.8508 6.98V5.4H50.6108V6.98H43.8508ZM53.652 16V5.4H55.572V16H53.652ZM54.612 3.36C54.2387 3.36 53.9254 3.24 53.672 3C53.432 2.76 53.312 2.46667 53.312 2.12C53.312 1.76 53.432 1.46 53.672 1.22C53.9254 0.979999 54.2387 0.859999 54.612 0.859999C54.9854 0.859999 55.292 0.979999 55.532 1.22C55.7854 1.44667 55.912 1.73333 55.912 2.08C55.912 2.44 55.792 2.74667 55.552 3C55.312 3.24 54.9987 3.36 54.612 3.36ZM64.898 5.3C65.7646 5.3 66.5246 5.46667 67.178 5.8C67.8446 6.13333 68.3646 6.64 68.738 7.32C69.1113 8 69.298 8.86 69.298 9.9V16H67.378V10.12C67.378 9.09333 67.1246 8.32 66.618 7.8C66.1246 7.28 65.4246 7.02 64.518 7.02C63.838 7.02 63.2446 7.15333 62.738 7.42C62.2313 7.68667 61.838 8.08 61.558 8.6C61.2913 9.12 61.158 9.76667 61.158 10.54V16H59.238V5.4H61.078V8.26L60.778 7.5C61.1246 6.80667 61.658 6.26667 62.378 5.88C63.098 5.49333 63.938 5.3 64.898 5.3ZM77.4913 20C76.5179 20 75.5713 19.86 74.6513 19.58C73.7446 19.3133 73.0046 18.9267 72.4313 18.42L73.3513 16.94C73.8446 17.3667 74.4513 17.7 75.1713 17.94C75.8913 18.1933 76.6446 18.32 77.4313 18.32C78.6846 18.32 79.6046 18.0267 80.1913 17.44C80.7779 16.8533 81.0713 15.96 81.0713 14.76V12.52L81.2713 10.42L81.1713 8.3V5.4H82.9913V14.56C82.9913 16.4267 82.5246 17.8 81.5912 18.68C80.6579 19.56 79.2913 20 77.4913 20ZM77.2513 15.56C76.2246 15.56 75.3046 15.3467 74.4913 14.92C73.6913 14.48 73.0513 13.8733 72.5713 13.1C72.1046 12.3267 71.8713 11.4333 71.8713 10.42C71.8713 9.39333 72.1046 8.5 72.5713 7.74C73.0513 6.96667 73.6913 6.36667 74.4913 5.94C75.3046 5.51333 76.2246 5.3 77.2513 5.3C78.1579 5.3 78.9846 5.48667 79.7313 5.86C80.4779 6.22 81.0713 6.78 81.5113 7.54C81.9646 8.3 82.1913 9.26 82.1913 10.42C82.1913 11.5667 81.9646 12.52 81.5113 13.28C81.0713 14.04 80.4779 14.6133 79.7313 15C78.9846 15.3733 78.1579 15.56 77.2513 15.56ZM77.4713 13.88C78.1779 13.88 78.8046 13.7333 79.3513 13.44C79.8979 13.1467 80.3246 12.74 80.6313 12.22C80.9513 11.7 81.1113 11.1 81.1113 10.42C81.1113 9.74 80.9513 9.14 80.6313 8.62C80.3246 8.1 79.8979 7.7 79.3513 7.42C78.8046 7.12667 78.1779 6.98 77.4713 6.98C76.7646 6.98 76.1313 7.12667 75.5713 7.42C75.0246 7.7 74.5913 8.1 74.2713 8.62C73.9646 9.14 73.8113 9.74 73.8113 10.42C73.8113 11.1 73.9646 11.7 74.2713 12.22C74.5913 12.74 75.0246 13.1467 75.5713 13.44C76.1313 13.7333 76.7646 13.88 77.4713 13.88ZM105.291 5.3C106.144 5.3 106.898 5.46667 107.551 5.8C108.204 6.13333 108.711 6.64 109.071 7.32C109.444 8 109.631 8.86 109.631 9.9V16H107.711V10.12C107.711 9.09333 107.471 8.32 106.991 7.8C106.511 7.28 105.838 7.02 104.971 7.02C104.331 7.02 103.771 7.15333 103.291 7.42C102.811 7.68667 102.438 8.08 102.171 8.6C101.918 9.12 101.791 9.76667 101.791 10.54V16H99.8709V10.12C99.8709 9.09333 99.6309 8.32 99.1509 7.8C98.6843 7.28 98.0109 7.02 97.1309 7.02C96.5043 7.02 95.9509 7.15333 95.4709 7.42C94.9909 7.68667 94.6176 8.08 94.3509 8.6C94.0843 9.12 93.9509 9.76667 93.9509 10.54V16H92.0309V5.4H93.8709V8.22L93.5709 7.5C93.9043 6.80667 94.4176 6.26667 95.1109 5.88C95.8043 5.49333 96.6109 5.3 97.5309 5.3C98.5443 5.3 99.4176 5.55333 100.151 6.06C100.884 6.55333 101.364 7.30667 101.591 8.32L100.811 8C101.131 7.18667 101.691 6.53333 102.491 6.04C103.291 5.54667 104.224 5.3 105.291 5.3ZM119.744 16V13.76L119.644 13.34V9.52C119.644 8.70667 119.404 8.08 118.924 7.64C118.457 7.18667 117.75 6.96 116.804 6.96C116.177 6.96 115.564 7.06667 114.964 7.28C114.364 7.48 113.857 7.75333 113.444 8.1L112.644 6.66C113.19 6.22 113.844 5.88667 114.604 5.66C115.377 5.42 116.184 5.3 117.024 5.3C118.477 5.3 119.597 5.65333 120.384 6.36C121.17 7.06667 121.564 8.14667 121.564 9.6V16H119.744ZM116.264 16.12C115.477 16.12 114.784 15.9867 114.184 15.72C113.597 15.4533 113.144 15.0867 112.824 14.62C112.504 14.14 112.344 13.6 112.344 13C112.344 12.4267 112.477 11.9067 112.744 11.44C113.024 10.9733 113.47 10.6 114.084 10.32C114.71 10.04 115.55 9.9 116.604 9.9H119.964V11.28H116.684C115.724 11.28 115.077 11.44 114.744 11.76C114.41 12.08 114.244 12.4667 114.244 12.92C114.244 13.44 114.45 13.86 114.864 14.18C115.277 14.4867 115.85 14.64 116.584 14.64C117.304 14.64 117.93 14.48 118.464 14.16C119.01 13.84 119.404 13.3733 119.644 12.76L120.024 14.08C119.77 14.7067 119.324 15.2067 118.684 15.58C118.044 15.94 117.237 16.12 116.264 16.12ZM128.757 16.12C127.69 16.12 126.864 15.8333 126.277 15.26C125.69 14.6867 125.397 13.8667 125.397 12.8V3.08H127.317V12.72C127.317 13.2933 127.457 13.7333 127.737 14.04C128.03 14.3467 128.444 14.5 128.977 14.5C129.577 14.5 130.077 14.3333 130.477 14L131.077 15.38C130.784 15.6333 130.43 15.82 130.017 15.94C129.617 16.06 129.197 16.12 128.757 16.12ZM123.597 6.98V5.4H130.357V6.98H123.597ZM137.767 16.12C136.633 16.12 135.633 15.8867 134.767 15.42C133.913 14.9533 133.247 14.3133 132.767 13.5C132.3 12.6867 132.067 11.7533 132.067 10.7C132.067 9.64667 132.293 8.71333 132.747 7.9C133.213 7.08667 133.847 6.45333 134.647 6C135.46 5.53333 136.373 5.3 137.387 5.3C138.413 5.3 139.32 5.52667 140.107 5.98C140.893 6.43333 141.507 7.07333 141.947 7.9C142.4 8.71333 142.627 9.66667 142.627 10.76C142.627 10.84 142.62 10.9333 142.607 11.04C142.607 11.1467 142.6 11.2467 142.587 11.34H133.567V9.96H141.587L140.807 10.44C140.82 9.76 140.68 9.15333 140.387 8.62C140.093 8.08667 139.687 7.67333 139.167 7.38C138.66 7.07333 138.067 6.92 137.387 6.92C136.72 6.92 136.127 7.07333 135.607 7.38C135.087 7.67333 134.68 8.09333 134.387 8.64C134.093 9.17333 133.947 9.78667 133.947 10.48V10.8C133.947 11.5067 134.107 12.14 134.427 12.7C134.76 13.2467 135.22 13.6733 135.807 13.98C136.393 14.2867 137.067 14.44 137.827 14.44C138.453 14.44 139.02 14.3333 139.527 14.12C140.047 13.9067 140.5 13.5867 140.887 13.16L141.947 14.4C141.467 14.96 140.867 15.3867 140.147 15.68C139.44 15.9733 138.647 16.12 137.767 16.12ZM145.293 16V5.4H147.133V8.28L146.953 7.56C147.246 6.82667 147.739 6.26667 148.433 5.88C149.126 5.49333 149.979 5.3 150.993 5.3V7.16C150.913 7.14667 150.833 7.14 150.753 7.14C150.686 7.14 150.619 7.14 150.553 7.14C149.526 7.14 148.713 7.44667 148.113 8.06C147.513 8.67333 147.213 9.56 147.213 10.72V16H145.293ZM153.359 16V5.4H155.279V16H153.359ZM154.319 3.36C153.946 3.36 153.632 3.24 153.379 3C153.139 2.76 153.019 2.46667 153.019 2.12C153.019 1.76 153.139 1.46 153.379 1.22C153.632 0.979999 153.946 0.859999 154.319 0.859999C154.692 0.859999 154.999 0.979999 155.239 1.22C155.492 1.44667 155.619 1.73333 155.619 2.08C155.619 2.44 155.499 2.74667 155.259 3C155.019 3.24 154.706 3.36 154.319 3.36ZM165.525 16V13.76L165.425 13.34V9.52C165.425 8.70667 165.185 8.08 164.705 7.64C164.238 7.18667 163.532 6.96 162.585 6.96C161.958 6.96 161.345 7.06667 160.745 7.28C160.145 7.48 159.638 7.75333 159.225 8.1L158.425 6.66C158.972 6.22 159.625 5.88667 160.385 5.66C161.158 5.42 161.965 5.3 162.805 5.3C164.258 5.3 165.378 5.65333 166.165 6.36C166.952 7.06667 167.345 8.14667 167.345 9.6V16H165.525ZM162.045 16.12C161.258 16.12 160.565 15.9867 159.965 15.72C159.378 15.4533 158.925 15.0867 158.605 14.62C158.285 14.14 158.125 13.6 158.125 13C158.125 12.4267 158.258 11.9067 158.525 11.44C158.805 10.9733 159.252 10.6 159.865 10.32C160.492 10.04 161.332 9.9 162.385 9.9H165.745V11.28H162.465C161.505 11.28 160.858 11.44 160.525 11.76C160.192 12.08 160.025 12.4667 160.025 12.92C160.025 13.44 160.232 13.86 160.645 14.18C161.058 14.4867 161.632 14.64 162.365 14.64C163.085 14.64 163.712 14.48 164.245 14.16C164.792 13.84 165.185 13.3733 165.425 12.76L165.805 14.08C165.552 14.7067 165.105 15.2067 164.465 15.58C163.825 15.94 163.018 16.12 162.045 16.12ZM170.898 16V1.16H172.818V16H170.898Z" fill="#282828"/>
</svg>
